<svg xmlns="http://www.w3.org/2000/svg" viewBox="0 0 1000 400" >
<style type="text/css">
  #dj{fill:#999999;}
  #jolene{fill:#ffffff;}
</style>
<g id="dj">
  <polygon class="st1" points="201.1,43.5 210.6,0.6 258,0.6 248.5,43.5  "/>
  <path class="st1" d="M244.5,67.5l-49,221.2c-8.7,39.1-38.7,55.7-70.3,55.7c-6,0-12-0.4-17.1-1.1l9.3-41.8c20.3,0,29.2-6,32-18.8
    l47.7-215.2H244.5z"/>
  <path class="st1" d="M90.7,272.1l5.5-24.8h-0.8c-11.1,12.8-35.7,28.6-56.8,28.6c-36.9,0-45.6-28.6-33.9-81.3l11-49.7
    c11.7-52.7,33.1-81.3,69.9-81.3c12.8,0,23.5,6,42.4,22.6l19-85.8h47.4l-60.2,271.6H90.7z M122.1,113.7
    c-7.2-10.2-14.8-14.7-25.3-14.7c-12.8,0-25.2,8.3-34.2,48.9l-9.7,43.6c-9,40.6-0.3,48.9,12.5,48.9c10.5,0,20.2-4.5,31.8-14.7
    L122.1,113.7z"/>
</g>
<g id="jolene">
  <path class="st0" d="M884.4,181.1l-6,27.1c-4.5,20.3,5.5,29.3,21.3,29.3c19.9,0,30.7-12.8,34.2-28.6h47.4
    c-11.6,42.1-42.3,67-90.1,67c-45.1,0-69.1-27.8-59.1-72.6l14.8-67c9.9-44.8,46.2-72.6,91.3-72.6c44,0,69.1,27.8,59.8,69.6
    l-10.6,47.8H884.4z M948.6,142.7l2.5-11.3c4-18.1-2.1-29.3-21.3-29.3c-19.2,0-30.3,11.3-34.3,29.3l-2.5,11.3H948.6z"/>
  <path class="st0" d="M662.6,272.1l45.4-204.7h45.9l-5.2,23.3c20.6-15,39.5-27.1,59.1-27.1c29,0,40.8,14.7,32.3,52.7l-34.5,155.7
    h-47.4l33.4-150.5c3-13.5,0.5-22.6-12.3-22.6c-9.8,0-22.8,9.4-34.9,18.4L710,272.1H662.6z"/>
  <path class="st0" d="M568.4,181.1l-6,27.1c-4.5,20.3,5.5,29.3,21.3,29.3c19.9,0,30.7-12.8,34.2-28.6h47.4
    c-11.6,42.1-42.3,67-90.1,67c-45.1,0-69.1-27.8-59.1-72.6l14.8-67c9.9-44.8,46.2-72.6,91.3-72.6c44,0,69.1,27.8,59.8,69.6
    l-10.6,47.8H568.4z M632.5,142.7l2.5-11.3c4-18.1-2.1-29.3-21.3-29.3s-30.3,11.3-34.3,29.3l-2.5,11.3H632.5z"/>
  <path class="st0" d="M500,0.5h47.4l-60.2,271.6h-47.4L500,0.5z"/>
  <path class="st0" d="M304.8,141.2c12-54.2,45-77.5,92.4-77.5s70.1,23.3,58.1,77.5l-12.7,57.2c-12,54.2-45,77.5-92.4,77.5
    c-47.4,0-70.1-23.3-58.1-77.5L304.8,141.2z M336.9,210.4c-3.5,15.8,5.9,24.1,22.5,24.1c16.6,0,29.7-8.3,33.2-24.1l18-81.3
    c3.5-15.8-5.9-24.1-22.5-24.1s-29.7,8.3-33.2,24.1L336.9,210.4z"/>
  <path class="st0" d="M275.8,0.3l-47.4,213.6h-0.2l-20,90.1c-8.7,39.1-38.7,55.7-70.3,55.7c-1.3,0-2.7,0-4-0.1l-8.5,38.4
    c7.4,1.1,15.9,1.6,24.6,1.6c45.6,0,88.8-23.9,101.4-80.3l70.7-319H275.8z"/>
</g>
</svg>
